<?xml version="1.0" encoding="utf-8"?>
<!-- Generator: Adobe Illustrator 16.0.0, SVG Export Plug-In . SVG Version: 6.00 Build 0)  -->
<!DOCTYPE svg PUBLIC "-//W3C//DTD SVG 1.1//EN" "http://www.w3.org/Graphics/SVG/1.1/DTD/svg11.dtd">
<svg version="1.1" id="Layer_1" xmlns="http://www.w3.org/2000/svg" xmlns:xlink="http://www.w3.org/1999/xlink" x="0px" y="0px"
	 width="50px" height="50px" viewBox="0 0 50 50" enable-background="new 0 0 50 50" xml:space="preserve">
<circle fill="#4555A5" cx="25" cy="25" r="25"/>
<g>
	<path fill="#FEC40D" d="M17.403,18.893v20.802h-5.754V18.893H4.346v-4.979h20.359v4.979H17.403z"/>
	<path fill="#FEC40D" d="M28.503,18.819v-4.906H44.29v3.984l-5.276,6.011c2.068,0.345,3.665,1.213,4.797,2.601
		c1.131,1.39,1.698,2.994,1.698,4.812c0,2.707-0.918,4.826-2.749,6.363s-4.173,2.305-7.027,2.305s-5.741-1.008-8.666-3.025
		l2.36-4.574c2.435,1.723,4.61,2.581,6.529,2.581c1.154,0,2.106-0.281,2.856-0.847c0.751-0.563,1.126-1.38,1.126-2.449
		c0-1.074-0.433-1.919-1.291-2.547c-0.861-0.627-2.053-0.94-3.578-0.94c-0.81,0-1.956,0.233-3.43,0.701v-4.241l4.943-5.828H28.503z"
		/>
</g>
</svg>
